<svg width="147" height="98" viewBox="0 0 147 98" fill="none" xmlns="http://www.w3.org/2000/svg">
<path fill-rule="evenodd" clip-rule="evenodd" d="M114.497 32.6667C132.463 32.6667 147 47.3667 147 65.3333C147 83.3 132.3 98 114.333 98C96.3667 98 81.6667 83.3 81.6667 65.3333C81.6667 29.2367 110.903 -1.21031e-05 147 -1.52588e-05C147 -1.52588e-05 125.603 8.00332 114.497 32.6667ZM65.3333 65.3333C65.3333 83.3 50.6333 98 32.6667 98C14.7 98 1.39737e-05 83.3 1.2403e-05 65.3333C9.24731e-06 29.2367 29.2367 -4.96359e-06 65.3333 -8.11926e-06C65.3333 -8.11926e-06 43.9367 8.00333 32.83 32.6667C50.7967 32.6667 65.3333 47.3667 65.3333 65.3333Z" fill="#F7F7F7"/>
</svg>
